<?xml version="1.0" encoding="UTF-8"?>
<svg id="Layer_1" xmlns="http://www.w3.org/2000/svg" viewBox="0 0 438.24 282.73">
  <defs>
    <style>
      .cls-1 {
        fill: #ed2024;
      }
    </style>
  </defs>
  <path class="cls-1" d="M.12,59.81C.12,44.48-.21,30.36.23,16.27.55,5.81,6.59.37,17.05.14c3.82-.09,7.64-.06,11.46-.06C155.62.05,282.74.02,409.86,0c25.59,0,28.2,2.59,28.35,28.17.06,10.27,0,20.54,0,31.65H.12Z"/>
  <path class="cls-1" d="M438.18,124.43c0-6.35-.61-12.7-.96-19.66H.14c0,55.04-.3,108.66.21,162.26.13,13.86,10.78,15.7,22.19,15.7,130.82-.08,261.65.02,392.47-.05,18.98-.01,23-4.1,23.09-23.4.2-44.95.14-89.9.08-134.86ZM111.66,240.19c0,5.51-4.47,9.98-9.98,9.98h-58.3c-5.51,0-9.98-4.47-9.98-9.98v-41.09c0-5.51,4.47-9.98,9.98-9.98h58.3c5.51,0,9.98,4.47,9.98,9.98v41.09Z"/>
</svg>