<?xml version="1.0" encoding="UTF-8"?>
<svg id="Layer_1" xmlns="http://www.w3.org/2000/svg" viewBox="0 0 384.15 384.18">
  <defs>
    <style>
      .cls-1 {
        fill: #ed1f24;
      }
    </style>
  </defs>
  <path class="cls-1" d="M234.87,256.39h-85.62c0,1.83,0,3.59,0,5.36,0,32.84,0,65.68,0,98.52,0,15.44-8.33,23.9-23.62,23.91-34.17,0-68.33.01-102.5,0-14.22,0-23.08-8.83-23.08-23.02C.04,292.63.07,224.12,0,155.61c0-7.95,2.99-14.16,9.18-18.97C65.71,92.67,122.23,48.69,178.79,4.76c8.35-6.49,18.35-6.34,27.13.46,37.11,28.78,74.17,57.64,111.24,86.47,18.8,14.62,37.52,29.34,56.43,43.83,7.16,5.48,10.58,12.2,10.56,21.35-.16,67.84-.08,135.69-.09,203.53,0,15.18-8.62,23.77-23.84,23.77-34.17,0-68.33.01-102.5,0-14.09,0-22.79-8.53-22.82-22.66-.08-32.84-.03-65.68-.03-98.52,0-2.12,0-4.24,0-6.61Z"/>
</svg>